<svg xmlns="http://www.w3.org/2000/svg" xmlns:xlink="http://www.w3.org/1999/xlink" width="622" zoomAndPan="magnify" viewBox="0 0 466.5 432.749982" height="577" preserveAspectRatio="xMidYMid meet" version="1.0"><defs><g/><clipPath id="c96551ad69"><path d="M 79.257812 251.710938 L 396.492188 251.710938 L 396.492188 288.785156 L 79.257812 288.785156 Z M 79.257812 251.710938 " clip-rule="nonzero"/></clipPath></defs><g fill="#3b3937" fill-opacity="1"><g transform="translate(222.16008, 319.962361)"><g><path d="M 46.71875 1.8125 C 33.875 1.8125 24.175781 -0.671875 17.625 -5.640625 C 11.082031 -10.609375 7.8125 -16.546875 7.8125 -23.453125 C 7.8125 -28.054688 9.207031 -31.507812 12 -33.8125 C 14.789062 -36.113281 18.425781 -37.265625 22.90625 -37.265625 C 23.03125 -24.054688 25.269531 -14.539062 29.625 -8.71875 C 33.988281 -2.90625 40.351562 0 48.71875 0 C 56.351562 0 62.5625 -2.179688 67.34375 -6.546875 C 72.132812 -10.910156 74.53125 -17.332031 74.53125 -25.8125 C 74.53125 -31.382812 73.4375 -35.898438 71.25 -39.359375 C 69.070312 -42.816406 65.738281 -45.90625 61.25 -48.625 C 56.769531 -51.351562 50.957031 -54.351562 43.8125 -57.625 C 37.875 -60.289062 32.359375 -63.289062 27.265625 -66.625 C 22.179688 -69.957031 18.09375 -74.046875 15 -78.890625 C 11.90625 -83.742188 10.359375 -89.867188 10.359375 -97.265625 C 10.359375 -108.296875 13.992188 -116.78125 21.265625 -122.71875 C 28.535156 -128.65625 38.414062 -131.625 50.90625 -131.625 C 61.8125 -131.625 70.503906 -129.5625 76.984375 -125.4375 C 83.472656 -121.320312 86.71875 -116.414062 86.71875 -110.71875 C 86.71875 -106.957031 85.234375 -103.957031 82.265625 -101.71875 C 79.296875 -99.476562 75.265625 -98.359375 70.171875 -98.359375 C 70.171875 -108.773438 68.5625 -116.585938 65.34375 -121.796875 C 62.132812 -127.015625 56.773438 -129.625 49.265625 -129.625 C 42.835938 -129.625 37.503906 -127.710938 33.265625 -123.890625 C 29.023438 -120.078125 26.90625 -114.050781 26.90625 -105.8125 C 26.90625 -100.226562 27.960938 -95.617188 30.078125 -91.984375 C 32.203125 -88.347656 35.535156 -85.132812 40.078125 -82.34375 C 44.628906 -79.5625 50.421875 -76.597656 57.453125 -73.453125 C 64.234375 -70.535156 70.195312 -67.472656 75.34375 -64.265625 C 80.5 -61.054688 84.53125 -57.144531 87.4375 -52.53125 C 90.351562 -47.925781 91.8125 -42.113281 91.8125 -35.09375 C 91.8125 -23.8125 87.898438 -14.835938 80.078125 -8.171875 C 72.265625 -1.515625 61.144531 1.8125 46.71875 1.8125 Z M 46.71875 1.8125 "/></g></g></g><g fill="#3b3937" fill-opacity="1"><g transform="translate(110.172889, 253.471379)"><g><path d="M 6.359375 0 L 6.359375 -1.8125 L 10.1875 -1.8125 C 14.425781 -1.8125 17.726562 -2.78125 20.09375 -4.71875 C 22.457031 -6.664062 23.640625 -9.941406 23.640625 -14.546875 L 23.640625 -115.984375 C 23.640625 -120.222656 22.457031 -123.28125 20.09375 -125.15625 C 17.726562 -127.039062 14.425781 -127.984375 10.1875 -127.984375 L 6.359375 -127.984375 L 6.359375 -129.796875 L 63.265625 -129.796875 C 82.410156 -129.796875 97.316406 -124.25 107.984375 -113.15625 C 118.648438 -102.070312 123.984375 -86.226562 123.984375 -65.625 C 123.984375 -52.414062 121.707031 -40.875 117.15625 -31 C 112.613281 -21.125 105.828125 -13.488281 96.796875 -8.09375 C 87.773438 -2.695312 76.597656 0 63.265625 0 Z M 44.71875 -1.8125 L 59.078125 -1.8125 C 73.742188 -1.8125 84.378906 -6.8125 90.984375 -16.8125 C 97.585938 -26.8125 100.890625 -43.082031 100.890625 -65.625 C 100.890625 -87.5625 97.617188 -103.4375 91.078125 -113.25 C 84.535156 -123.070312 73.929688 -127.984375 59.265625 -127.984375 L 44.71875 -127.984375 Z M 44.71875 -1.8125 "/></g></g></g><g clip-path="url(#c96551ad69)"><path fill="#f4f4f4" d="M 79.257812 251.710938 L 396.492188 251.710938 L 396.492188 288.785156 L 79.257812 288.785156 Z M 79.257812 251.710938 " fill-opacity="1" fill-rule="nonzero"/></g><g fill="#967f71" fill-opacity="1"><g transform="translate(159.695562, 278.231262)"><g><path d="M 4.96875 -0.15625 C 9.28125 -0.484375 19.71875 -4.484375 20.03125 -12.367188 C 20.078125 -14.265625 19.15625 -16.050781 17.570312 -17.117188 C 14.953125 -19.0625 10.957031 -19.53125 7.398438 -18.292969 C 3.277344 -16.882812 0.644531 -14.34375 0.328125 -11.503906 C 0.09375 -9.75 0.941406 -8.011719 2.460938 -7.101562 C 3.558594 -6.457031 4.84375 -6.175781 6.097656 -6.316406 C 6.175781 -6.332031 6.253906 -6.300781 6.300781 -6.238281 C 6.347656 -6.175781 6.363281 -6.097656 6.347656 -6.035156 C 5.722656 -4.042969 5.0625 -2.054688 4.546875 -0.722656 C 4.5 -0.59375 4.515625 -0.453125 4.59375 -0.328125 C 4.671875 -0.21875 4.796875 -0.15625 4.9375 -0.15625 Z M 7.257812 -6.207031 C 7.320312 -6.394531 7.476562 -6.550781 7.679688 -6.613281 C 8.949219 -6.976562 10.140625 -7.523438 11.222656 -8.246094 C 11.347656 -8.324219 11.425781 -8.464844 11.410156 -8.621094 C 11.410156 -8.761719 11.316406 -8.902344 11.191406 -8.964844 C 11.050781 -9.027344 10.894531 -9.027344 10.769531 -8.933594 C 9.921875 -8.386719 9.011719 -7.929688 8.058594 -7.585938 C 7.980469 -7.554688 7.882812 -7.585938 7.820312 -7.648438 C 7.773438 -7.695312 7.742188 -7.789062 7.773438 -7.867188 C 8.605469 -10.628906 9.28125 -12.949219 9.296875 -12.980469 C 9.34375 -13.167969 9.265625 -13.371094 9.089844 -13.449219 C 8.933594 -13.542969 8.730469 -13.511719 8.589844 -13.371094 C 7.898438 -12.632812 6.773438 -12.476562 5.910156 -13.011719 C 5.722656 -13.136719 5.46875 -13.074219 5.34375 -12.886719 C 5.21875 -12.679688 5.28125 -12.429688 5.484375 -12.304688 C 6.160156 -11.867188 7.007812 -11.742188 7.773438 -11.960938 C 7.851562 -11.992188 7.945312 -11.976562 8.011719 -11.914062 C 8.058594 -11.867188 8.089844 -11.773438 8.058594 -11.695312 C 7.742188 -10.644531 7.304688 -9.136719 6.820312 -7.539062 C 6.757812 -7.351562 6.582031 -7.210938 6.394531 -7.179688 C 5.1875 -6.976562 3.949219 -7.195312 2.898438 -7.789062 C 1.644531 -8.542969 0.957031 -9.96875 1.144531 -11.425781 C 1.410156 -13.933594 3.855469 -16.207031 7.664062 -17.523438 C 10.988281 -18.667969 14.671875 -18.246094 17.085938 -16.457031 C 18.433594 -15.566406 19.234375 -14.027344 19.21875 -12.398438 C 18.949219 -5.707031 10.359375 -1.914062 5.925781 -1.113281 C 5.847656 -1.097656 5.769531 -1.128906 5.722656 -1.191406 C 5.675781 -1.253906 5.660156 -1.332031 5.675781 -1.410156 C 6.160156 -2.773438 6.722656 -4.5 7.257812 -6.207031 Z M 7.257812 -6.207031 "/></g></g></g><g fill="#967f71" fill-opacity="1"><g transform="translate(178.826225, 278.231262)"><g><path d="M 13.152344 -4.027344 C 13.074219 -4.105469 12.980469 -4.167969 12.871094 -4.167969 C 12.757812 -4.183594 12.648438 -4.152344 12.570312 -4.089844 C 12.507812 -4.042969 6.472656 0.753906 1.441406 -1.316406 C 0.421875 -1.738281 0.375 -2.289062 0.40625 -2.585938 C 0.40625 -2.632812 0.421875 -2.679688 0.46875 -2.710938 C 0.5 -2.742188 0.5625 -2.742188 0.609375 -2.726562 C 1.628906 -2.664062 2.648438 -2.929688 3.527344 -3.480469 C 4.277344 -3.964844 4.40625 -4.5 4.359375 -4.84375 C 4.328125 -5.40625 3.871094 -5.863281 3.292969 -5.878906 C 2.054688 -5.941406 -0.015625 -4.46875 -0.359375 -2.898438 C -0.5 -2.320312 -0.484375 -1.222656 1.128906 -0.5625 C 2.117188 -0.15625 3.152344 0.03125 4.199219 0.03125 C 8.699219 0.03125 12.871094 -3.277344 13.089844 -3.449219 C 13.167969 -3.511719 13.230469 -3.621094 13.230469 -3.714844 C 13.246094 -3.824219 13.214844 -3.933594 13.152344 -4.027344 Z M 0.972656 -3.683594 C 1.582031 -4.53125 2.601562 -5.09375 3.246094 -5.046875 C 3.417969 -5.046875 3.511719 -4.984375 3.542969 -4.75 C 3.558594 -4.59375 3.386719 -4.375 3.074219 -4.167969 C 2.429688 -3.746094 0.5 -3.054688 0.972656 -3.683594 Z M 0.972656 -3.683594 "/></g></g></g><g fill="#967f71" fill-opacity="1"><g transform="translate(191.376319, 278.231262)"><g><path d="M 10.753906 -4.34375 C 10.675781 -4.421875 10.582031 -4.453125 10.472656 -4.453125 C 10.359375 -4.453125 10.25 -4.421875 10.171875 -4.34375 C 8.667969 -2.914062 6.820312 -1.914062 4.796875 -1.425781 C 4.71875 -1.394531 4.625 -1.425781 4.578125 -1.488281 C 4.53125 -1.566406 4.515625 -1.644531 4.5625 -1.722656 C 4.84375 -2.273438 4.78125 -2.929688 4.421875 -3.433594 C 4.199219 -3.730469 3.917969 -3.980469 3.589844 -4.167969 C 3.152344 -4.46875 2.664062 -4.8125 2.648438 -5.171875 C 2.664062 -5.375 2.742188 -5.566406 2.882812 -5.722656 L 3.730469 -6.519531 C 3.886719 -6.675781 3.902344 -6.929688 3.761719 -7.085938 C 3.621094 -7.257812 3.386719 -7.289062 3.199219 -7.148438 C 2.867188 -6.898438 2.554688 -6.613281 2.289062 -6.285156 L -0.125 -4.027344 C -0.234375 -3.933594 -0.28125 -3.777344 -0.25 -3.636719 C -0.21875 -3.480469 -0.109375 -3.371094 0.03125 -3.324219 C 0.171875 -3.292969 0.328125 -3.324219 0.4375 -3.433594 L 1.628906 -4.546875 C 1.691406 -4.609375 1.769531 -4.625 1.851562 -4.625 C 1.929688 -4.609375 1.992188 -4.5625 2.023438 -4.5 C 2.320312 -4.089844 2.695312 -3.746094 3.121094 -3.496094 C 3.355469 -3.355469 3.558594 -3.199219 3.730469 -2.992188 C 3.886719 -2.820312 3.964844 -2.585938 3.917969 -2.351562 C 3.871094 -2.117188 3.730469 -1.914062 3.527344 -1.800781 C 2.523438 -1.238281 1.253906 -1.503906 0.5625 -2.429688 C 0.453125 -2.601562 0.203125 -2.664062 0.015625 -2.539062 C -0.171875 -2.429688 -0.234375 -2.195312 -0.125 -1.992188 C 0.390625 -1.097656 1.316406 -0.515625 2.351562 -0.4375 C 2.617188 -0.390625 2.867188 -0.375 3.136719 -0.375 C 5.785156 -0.375 9.042969 -2.039062 10.753906 -3.761719 C 10.910156 -3.917969 10.910156 -4.183594 10.753906 -4.34375 Z M 10.753906 -4.34375 "/></g></g></g><g fill="#967f71" fill-opacity="1"><g transform="translate(201.497873, 278.231262)"><g><path d="M 10.15625 -4.230469 C 9.984375 -4.390625 9.734375 -4.390625 9.578125 -4.214844 C 9.515625 -4.167969 4.4375 1.003906 1.066406 -1.457031 C 0.03125 -2.210938 1.035156 -4.167969 1.050781 -4.183594 C 1.144531 -4.390625 1.066406 -4.625 0.863281 -4.734375 C 0.660156 -4.828125 0.421875 -4.765625 0.3125 -4.5625 C 0.25 -4.46875 -1.019531 -1.976562 0.578125 -0.800781 C 1.316406 -0.25 2.226562 0.046875 3.152344 0.03125 C 6.535156 0.03125 9.96875 -3.464844 10.15625 -3.652344 C 10.234375 -3.730469 10.28125 -3.824219 10.28125 -3.933594 C 10.265625 -4.042969 10.234375 -4.152344 10.15625 -4.230469 Z M 0.140625 -5.46875 C 0.203125 -5.46875 0.265625 -5.484375 0.328125 -5.519531 C 0.707031 -5.707031 1.035156 -5.957031 1.332031 -6.253906 C 1.488281 -6.425781 1.472656 -6.675781 1.316406 -6.835938 C 1.144531 -6.992188 0.894531 -6.992188 0.738281 -6.820312 C 0.5 -6.582031 0.234375 -6.394531 -0.0625 -6.238281 C -0.21875 -6.160156 -0.3125 -5.957031 -0.265625 -5.785156 C -0.21875 -5.597656 -0.046875 -5.46875 0.140625 -5.46875 Z M 0.140625 -5.46875 "/></g></g></g><g fill="#967f71" fill-opacity="1"><g transform="translate(211.118051, 278.231262)"><g><path d="M 10.910156 -4.121094 C 10.738281 -4.277344 10.472656 -4.261719 10.328125 -4.089844 C 9.089844 -2.804688 7.085938 -2.679688 5.707031 -3.792969 C 5.375 -4.027344 4.921875 -4.011719 4.625 -3.730469 C 4.453125 -3.574219 4.261719 -3.402344 4.074219 -3.199219 C 3.480469 -2.523438 3.371094 -3.089844 3.371094 -3.464844 C 3.371094 -3.792969 3.308594 -4.136719 3.199219 -4.453125 C 3.136719 -4.609375 2.976562 -4.71875 2.804688 -4.71875 C 2.632812 -4.703125 2.492188 -4.609375 2.429688 -4.4375 C 1.992188 -3.214844 1.050781 -1.425781 0.390625 -1.300781 C 0.34375 -1.285156 0.21875 -1.269531 0.03125 -1.472656 C -0.0625 -1.882812 0 -2.320312 0.203125 -2.695312 C 0.675781 -3.964844 1.832031 -4.859375 3.183594 -4.984375 C 3.417969 -5 3.589844 -5.203125 3.574219 -5.421875 C 3.558594 -5.660156 3.355469 -5.832031 3.136719 -5.816406 C 1.457031 -5.660156 0.015625 -4.5625 -0.578125 -2.976562 C -0.847656 -2.289062 -1.003906 -1.378906 -0.578125 -0.925781 C -0.296875 -0.578125 0.125 -0.421875 0.546875 -0.5 C 1.332031 -0.660156 2.039062 -1.691406 2.539062 -2.632812 C 2.507812 -2.257812 2.460938 -1.832031 2.398438 -1.394531 C 2.382812 -1.300781 2.351562 -1.222656 2.304688 -1.160156 C 0.46875 1.160156 -1.191406 3.964844 -1.222656 5.738281 C -1.269531 6.207031 -1.097656 6.675781 -0.785156 7.023438 C -0.628906 7.179688 -0.4375 7.257812 -0.234375 7.257812 C -0.0625 7.257812 0.109375 7.210938 0.25 7.117188 C 1.285156 6.425781 2.601562 2.398438 3.121094 -0.800781 C 3.136719 -0.863281 3.167969 -0.925781 3.214844 -0.988281 C 3.761719 -1.660156 4.34375 -2.304688 4.953125 -2.914062 C 5.09375 -3.054688 5.3125 -3.074219 5.46875 -2.960938 C 7.195312 -1.800781 9.484375 -2.054688 10.925781 -3.542969 C 11.066406 -3.714844 11.066406 -3.964844 10.910156 -4.121094 Z M 0.46875 5.453125 C 0.109375 6.175781 -0.015625 6.488281 -0.203125 6.425781 C -0.390625 6.378906 -0.40625 6.066406 -0.390625 5.753906 C -0.359375 4.546875 1.738281 0.453125 2.039062 0.578125 C 2.335938 0.707031 1.066406 4.214844 0.46875 5.453125 Z M 0.46875 5.453125 "/></g></g></g><g fill="#967f71" fill-opacity="1"><g transform="translate(221.443287, 278.231262)"><g><path d="M 13.699219 -3.902344 C 13.605469 -3.964844 13.511719 -4.011719 13.402344 -4.011719 C 13.292969 -3.996094 13.183594 -3.949219 13.121094 -3.871094 C 13.074219 -3.839844 9.625 -0.15625 6.628906 -1.363281 C 5.988281 -1.707031 5.46875 -2.226562 5.109375 -2.867188 C 4.984375 -3.074219 4.828125 -3.277344 4.640625 -3.464844 C 4.4375 -3.714844 4.121094 -3.855469 3.792969 -3.871094 C 2.992188 -3.933594 2.023438 -3.402344 0.863281 -2.304688 C 0.832031 -2.273438 0.785156 -2.257812 0.738281 -2.289062 C 0.691406 -2.304688 0.660156 -2.367188 0.675781 -2.414062 L 1.019531 -3.949219 C 1.082031 -4.167969 0.941406 -4.40625 0.722656 -4.453125 C 0.5 -4.5 0.28125 -4.359375 0.21875 -4.136719 L -0.5625 -0.707031 C -0.609375 -0.515625 -0.515625 -0.328125 -0.34375 -0.25 C -0.171875 -0.15625 0.03125 -0.203125 0.15625 -0.34375 C 2.257812 -2.804688 3.324219 -3.039062 3.699219 -3.054688 C 4.074219 -3.074219 4.3125 -2.585938 4.4375 -2.398438 C 4.875 -1.628906 5.535156 -1.003906 6.316406 -0.609375 C 9.828125 0.816406 13.558594 -3.152344 13.714844 -3.324219 C 13.871094 -3.480469 13.855469 -3.746094 13.699219 -3.902344 Z M 13.699219 -3.902344 "/></g></g></g><g fill="#967f71" fill-opacity="1"><g transform="translate(234.494758, 278.231262)"><g><path d="M 11.363281 -2.195312 C 12.273438 -4.96875 9.796875 -7.460938 7.414062 -9.890625 C 5.140625 -12.195312 2.976562 -14.390625 4.027344 -16.488281 C 4.8125 -18.089844 7.195312 -17.917969 8.542969 -17.664062 C 12.164062 -16.976562 16.144531 -14.40625 16.300781 -12.664062 C 16.347656 -12.039062 15.863281 -11.519531 14.828125 -11.128906 C 13.386719 -10.738281 11.882812 -10.660156 10.40625 -10.863281 C 10.1875 -10.894531 9.984375 -10.738281 9.953125 -10.519531 C 9.921875 -10.296875 10.078125 -10.09375 10.296875 -10.046875 C 11.914062 -9.8125 13.542969 -9.921875 15.125 -10.359375 C 16.882812 -11.019531 17.179688 -12.023438 17.117188 -12.726562 C 16.914062 -15.109375 12.414062 -17.761719 8.699219 -18.464844 C 5.972656 -18.984375 4.058594 -18.402344 3.292969 -16.851562 C 1.976562 -14.234375 4.453125 -11.726562 6.835938 -9.3125 C 9.042969 -7.070312 11.332031 -4.75 10.597656 -2.445312 C 10.125 -0.988281 7.664062 -0.46875 5.597656 -0.609375 C 3.464844 -0.753906 1.785156 -1.519531 1.613281 -2.429688 C 1.519531 -2.914062 1.769531 -4.230469 5.957031 -6.144531 C 6.082031 -6.207031 6.175781 -6.332031 6.191406 -6.488281 C 6.207031 -6.628906 6.144531 -6.789062 6.019531 -6.867188 C 5.894531 -6.945312 5.738281 -6.960938 5.613281 -6.898438 C 2.148438 -5.3125 0.53125 -3.761719 0.800781 -2.289062 C 1.097656 -0.660156 3.542969 0.078125 5.550781 0.203125 C 5.785156 0.21875 6.019531 0.234375 6.253906 0.234375 C 8.386719 0.234375 10.785156 -0.390625 11.363281 -2.195312 Z M 11.363281 -2.195312 "/></g></g></g><g fill="#967f71" fill-opacity="1"><g transform="translate(247.843923, 278.231262)"><g><path d="M 12.917969 -4.089844 C 12.851562 -4.167969 12.742188 -4.214844 12.632812 -4.214844 C 12.523438 -4.214844 12.414062 -4.183594 12.335938 -4.105469 C 10.171875 -2.054688 6.613281 -1.613281 4.058594 -1.457031 C 3.980469 -1.441406 3.933594 -1.566406 3.980469 -1.644531 C 4.183594 -1.914062 4.328125 -2.226562 4.390625 -2.554688 C 4.515625 -3.402344 4.011719 -4.214844 3.183594 -4.453125 C 2.445312 -4.75 1.644531 -4.296875 0.769531 -3.136719 C 0.707031 -3.054688 0.628906 -3.089844 0.644531 -3.183594 C 0.707031 -3.652344 0.769531 -4.105469 0.832031 -4.53125 C 0.863281 -4.6875 0.800781 -4.828125 0.691406 -4.921875 C 0.5625 -5.03125 0.40625 -5.046875 0.265625 -4.984375 C 0.125 -4.9375 0.03125 -4.796875 0.015625 -4.65625 C -0.15625 -3.402344 -0.359375 -2.101562 -0.578125 -0.847656 C -2.007812 2.023438 -3.558594 6.441406 -2.820312 7.132812 C -2.710938 7.242188 -2.554688 7.304688 -2.398438 7.304688 C -2.320312 7.304688 -2.257812 7.304688 -2.179688 7.273438 C -1.285156 6.960938 -0.421875 3.089844 0.21875 -0.628906 C 0.234375 -0.660156 0.234375 -0.675781 0.25 -0.691406 C 0.691406 -1.660156 1.300781 -2.554688 2.039062 -3.324219 C 2.273438 -3.542969 2.617188 -3.792969 2.882812 -3.683594 C 3.417969 -3.464844 3.652344 -3.136719 3.574219 -2.695312 C 3.371094 -1.976562 2.742188 -1.425781 1.992188 -1.316406 C 1.898438 -1.316406 1.800781 -1.300781 1.707031 -1.300781 C 1.488281 -1.269531 1.332031 -1.082031 1.332031 -0.863281 C 1.363281 -0.644531 1.535156 -0.484375 1.753906 -0.484375 C 1.867188 -0.484375 1.976562 -0.484375 2.085938 -0.5 C 2.382812 -0.53125 2.726562 -0.546875 3.121094 -0.5625 C 5.769531 -0.722656 10.21875 -0.957031 12.902344 -3.511719 C 12.996094 -3.574219 13.027344 -3.683594 13.042969 -3.792969 C 13.042969 -3.902344 12.996094 -4.011719 12.917969 -4.089844 Z M -2.179688 5.972656 C -1.976562 5.03125 -1.722656 4.105469 -1.394531 3.214844 C -1.582031 4.152344 -1.851562 5.0625 -2.179688 5.972656 Z M -2.179688 5.972656 "/></g></g></g><g fill="#967f71" fill-opacity="1"><g transform="translate(260.190335, 278.231262)"><g><path d="M 13.511719 -4.121094 C 13.433594 -4.199219 13.339844 -4.246094 13.230469 -4.246094 C 13.121094 -4.246094 13.011719 -4.199219 12.933594 -4.121094 C 10.21875 -1.472656 5.40625 -0.910156 4.375 -1.519531 C 3.667969 -1.929688 3.746094 -2.414062 4.246094 -3.386719 C 4.484375 -3.855469 4.75 -4.40625 4.296875 -4.734375 C 3.871094 -5.046875 3.464844 -4.84375 3.105469 -4.65625 C 2.585938 -4.359375 2.007812 -4.199219 1.394531 -4.199219 C 1.253906 -4.199219 1.128906 -4.453125 1.160156 -4.546875 C 2.039062 -6.472656 1.644531 -6.835938 1.503906 -6.976562 C 1.269531 -7.210938 0.910156 -7.195312 0.46875 -6.929688 C -0.25 -6.410156 -0.5625 -5.484375 -0.3125 -4.625 C -0.25 -4.390625 -0.140625 -4.167969 0.015625 -3.980469 C 0 -3.808594 0.078125 -3.652344 0.234375 -3.574219 C 0.328125 -3.527344 0.4375 -3.527344 0.546875 -3.558594 C 0.816406 -3.433594 1.113281 -3.371094 1.410156 -3.371094 C 2.054688 -3.355469 2.679688 -3.496094 3.246094 -3.808594 C 3.464844 -3.917969 3.542969 -3.824219 3.511719 -3.761719 C 3.136719 -3.023438 2.460938 -1.675781 3.964844 -0.800781 C 4.5 -0.546875 5.09375 -0.4375 5.691406 -0.484375 C 7.882812 -0.484375 11.332031 -1.425781 13.496094 -3.542969 C 13.574219 -3.605469 13.621094 -3.714844 13.621094 -3.824219 C 13.636719 -3.933594 13.589844 -4.042969 13.511719 -4.121094 Z M 0.453125 -4.984375 C 0.359375 -5.4375 0.515625 -5.910156 0.878906 -6.207031 C 0.769531 -5.785156 0.628906 -5.375 0.453125 -4.96875 Z M 0.453125 -4.984375 "/></g></g></g><g fill="#967f71" fill-opacity="1"><g transform="translate(273.038123, 278.231262)"><g><path d="M 10.15625 -4.230469 C 9.984375 -4.390625 9.734375 -4.390625 9.578125 -4.214844 C 9.515625 -4.167969 4.4375 1.003906 1.066406 -1.457031 C 0.03125 -2.210938 1.035156 -4.167969 1.050781 -4.183594 C 1.144531 -4.390625 1.066406 -4.625 0.863281 -4.734375 C 0.660156 -4.828125 0.421875 -4.765625 0.3125 -4.5625 C 0.25 -4.46875 -1.019531 -1.976562 0.578125 -0.800781 C 1.316406 -0.25 2.226562 0.046875 3.152344 0.03125 C 6.535156 0.03125 9.96875 -3.464844 10.15625 -3.652344 C 10.234375 -3.730469 10.28125 -3.824219 10.28125 -3.933594 C 10.265625 -4.042969 10.234375 -4.152344 10.15625 -4.230469 Z M 0.140625 -5.46875 C 0.203125 -5.46875 0.265625 -5.484375 0.328125 -5.519531 C 0.707031 -5.707031 1.035156 -5.957031 1.332031 -6.253906 C 1.488281 -6.425781 1.472656 -6.675781 1.316406 -6.835938 C 1.144531 -6.992188 0.894531 -6.992188 0.738281 -6.820312 C 0.5 -6.582031 0.234375 -6.394531 -0.0625 -6.238281 C -0.21875 -6.160156 -0.3125 -5.957031 -0.265625 -5.785156 C -0.21875 -5.597656 -0.046875 -5.46875 0.140625 -5.46875 Z M 0.140625 -5.46875 "/></g></g></g><g fill="#967f71" fill-opacity="1"><g transform="translate(282.658301, 278.231262)"><g><path d="M 13.699219 -3.902344 C 13.605469 -3.964844 13.511719 -4.011719 13.402344 -4.011719 C 13.292969 -3.996094 13.183594 -3.949219 13.121094 -3.871094 C 13.074219 -3.839844 9.625 -0.15625 6.628906 -1.363281 C 5.988281 -1.707031 5.46875 -2.226562 5.109375 -2.867188 C 4.984375 -3.074219 4.828125 -3.277344 4.640625 -3.464844 C 4.4375 -3.714844 4.121094 -3.855469 3.792969 -3.871094 C 2.992188 -3.933594 2.023438 -3.402344 0.863281 -2.304688 C 0.832031 -2.273438 0.785156 -2.257812 0.738281 -2.289062 C 0.691406 -2.304688 0.660156 -2.367188 0.675781 -2.414062 L 1.019531 -3.949219 C 1.082031 -4.167969 0.941406 -4.40625 0.722656 -4.453125 C 0.5 -4.5 0.28125 -4.359375 0.21875 -4.136719 L -0.5625 -0.707031 C -0.609375 -0.515625 -0.515625 -0.328125 -0.34375 -0.25 C -0.171875 -0.15625 0.03125 -0.203125 0.15625 -0.34375 C 2.257812 -2.804688 3.324219 -3.039062 3.699219 -3.054688 C 4.074219 -3.074219 4.3125 -2.585938 4.4375 -2.398438 C 4.875 -1.628906 5.535156 -1.003906 6.316406 -0.609375 C 9.828125 0.816406 13.558594 -3.152344 13.714844 -3.324219 C 13.871094 -3.480469 13.855469 -3.746094 13.699219 -3.902344 Z M 13.699219 -3.902344 "/></g></g></g><g fill="#967f71" fill-opacity="1"><g transform="translate(295.709771, 278.231262)"><g><path d="M 10.910156 -4.121094 C 10.738281 -4.277344 10.472656 -4.261719 10.328125 -4.089844 C 9.089844 -2.804688 7.085938 -2.679688 5.707031 -3.792969 C 5.375 -4.027344 4.921875 -4.011719 4.625 -3.730469 C 4.453125 -3.574219 4.261719 -3.402344 4.074219 -3.199219 C 3.480469 -2.523438 3.371094 -3.089844 3.371094 -3.464844 C 3.371094 -3.792969 3.308594 -4.136719 3.199219 -4.453125 C 3.136719 -4.609375 2.976562 -4.71875 2.804688 -4.71875 C 2.632812 -4.703125 2.492188 -4.609375 2.429688 -4.4375 C 1.992188 -3.214844 1.050781 -1.425781 0.390625 -1.300781 C 0.34375 -1.285156 0.21875 -1.269531 0.03125 -1.472656 C -0.0625 -1.882812 0 -2.320312 0.203125 -2.695312 C 0.675781 -3.964844 1.832031 -4.859375 3.183594 -4.984375 C 3.417969 -5 3.589844 -5.203125 3.574219 -5.421875 C 3.558594 -5.660156 3.355469 -5.832031 3.136719 -5.816406 C 1.457031 -5.660156 0.015625 -4.5625 -0.578125 -2.976562 C -0.847656 -2.289062 -1.003906 -1.378906 -0.578125 -0.925781 C -0.296875 -0.578125 0.125 -0.421875 0.546875 -0.5 C 1.332031 -0.660156 2.039062 -1.691406 2.539062 -2.632812 C 2.507812 -2.257812 2.460938 -1.832031 2.398438 -1.394531 C 2.382812 -1.300781 2.351562 -1.222656 2.304688 -1.160156 C 0.46875 1.160156 -1.191406 3.964844 -1.222656 5.738281 C -1.269531 6.207031 -1.097656 6.675781 -0.785156 7.023438 C -0.628906 7.179688 -0.4375 7.257812 -0.234375 7.257812 C -0.0625 7.257812 0.109375 7.210938 0.25 7.117188 C 1.285156 6.425781 2.601562 2.398438 3.121094 -0.800781 C 3.136719 -0.863281 3.167969 -0.925781 3.214844 -0.988281 C 3.761719 -1.660156 4.34375 -2.304688 4.953125 -2.914062 C 5.09375 -3.054688 5.3125 -3.074219 5.46875 -2.960938 C 7.195312 -1.800781 9.484375 -2.054688 10.925781 -3.542969 C 11.066406 -3.714844 11.066406 -3.964844 10.910156 -4.121094 Z M 0.46875 5.453125 C 0.109375 6.175781 -0.015625 6.488281 -0.203125 6.425781 C -0.390625 6.378906 -0.40625 6.066406 -0.390625 5.753906 C -0.359375 4.546875 1.738281 0.453125 2.039062 0.578125 C 2.335938 0.707031 1.066406 4.214844 0.46875 5.453125 Z M 0.46875 5.453125 "/></g></g></g></svg>