<svg width="165" height="52" viewBox="0 0 165 52" fill="none" xmlns="http://www.w3.org/2000/svg">
<rect width="165" height="52" rx="26" fill="#FF7080"/>
<path d="M46.14 31H39.64V29.28L41.38 28.48V19.24L39.64 18.44V16.72H46.14V18.44L44.4 19.24V28.48L46.14 29.28V31ZM54.5334 19.88C55.7068 19.88 56.6468 20.2 57.3534 20.84C58.0601 21.4667 58.4134 22.48 58.4134 23.88V31H55.4334V24.62C55.4334 23.8333 55.2934 23.2467 55.0134 22.86C54.7334 22.46 54.2868 22.26 53.6734 22.26C52.7668 22.26 52.1468 22.5733 51.8134 23.2C51.4801 23.8133 51.3134 24.7 51.3134 25.86V31H48.3334V20.08H50.6134L51.0134 21.48H51.1734C51.4134 21.1067 51.7068 20.8067 52.0534 20.58C52.4001 20.34 52.7868 20.1667 53.2134 20.06C53.6401 19.94 54.0801 19.88 54.5334 19.88ZM64.938 31.2C63.7246 31.2 62.7313 30.7267 61.958 29.78C61.198 28.82 60.818 27.4133 60.818 25.56C60.818 23.6933 61.2046 22.28 61.978 21.32C62.7513 20.36 63.7646 19.88 65.018 19.88C65.538 19.88 65.998 19.9533 66.398 20.1C66.798 20.2333 67.138 20.42 67.418 20.66C67.7113 20.9 67.958 21.1733 68.158 21.48H68.258C68.218 21.2667 68.1713 20.96 68.118 20.56C68.0646 20.1467 68.038 19.7267 68.038 19.3V15.8H71.018V31H68.738L68.158 29.58H68.038C67.8513 29.8733 67.6113 30.1467 67.318 30.4C67.038 30.64 66.7046 30.8333 66.318 30.98C65.9313 31.1267 65.4713 31.2 64.938 31.2ZM65.978 28.82C66.8046 28.82 67.3846 28.58 67.718 28.1C68.0513 27.6067 68.2246 26.8733 68.238 25.9V25.58C68.238 24.5133 68.0713 23.7 67.738 23.14C67.418 22.58 66.818 22.3 65.938 22.3C65.2846 22.3 64.7713 22.5867 64.398 23.16C64.0246 23.72 63.838 24.5333 63.838 25.6C63.838 26.6667 64.0246 27.4733 64.398 28.02C64.7713 28.5533 65.298 28.82 65.978 28.82ZM78.6342 19.88C79.6476 19.88 80.5142 20.0733 81.2342 20.46C81.9676 20.8467 82.5342 21.4067 82.9342 22.14C83.3342 22.8733 83.5342 23.7733 83.5342 24.84V26.28H76.4942C76.5209 27.12 76.7676 27.78 77.2342 28.26C77.7142 28.74 78.3742 28.98 79.2142 28.98C79.9209 28.98 80.5609 28.9133 81.1342 28.78C81.7076 28.6333 82.3009 28.4133 82.9142 28.12V30.42C82.3809 30.6867 81.8142 30.88 81.2142 31C80.6276 31.1333 79.9142 31.2 79.0742 31.2C77.9809 31.2 77.0142 31 76.1742 30.6C75.3342 30.1867 74.6742 29.5667 74.1942 28.74C73.7142 27.9133 73.4742 26.8733 73.4742 25.62C73.4742 24.34 73.6876 23.28 74.1142 22.44C74.5542 21.5867 75.1609 20.9467 75.9342 20.52C76.7076 20.0933 77.6076 19.88 78.6342 19.88ZM78.6542 22C78.0809 22 77.6009 22.1867 77.2142 22.56C76.8409 22.9333 76.6209 23.5133 76.5542 24.3H80.7342C80.7342 23.86 80.6542 23.4667 80.4942 23.12C80.3476 22.7733 80.1209 22.5 79.8142 22.3C79.5076 22.1 79.1209 22 78.6542 22ZM93.5706 27.76C93.5706 28.4933 93.3973 29.12 93.0506 29.64C92.704 30.1467 92.184 30.5333 91.4906 30.8C90.7973 31.0667 89.9373 31.2 88.9106 31.2C88.1506 31.2 87.4973 31.1467 86.9506 31.04C86.404 30.9467 85.8573 30.7867 85.3106 30.56V28.1C85.8973 28.3667 86.5306 28.5867 87.2106 28.76C87.8906 28.9333 88.4906 29.02 89.0106 29.02C89.5973 29.02 90.0106 28.9333 90.2506 28.76C90.504 28.5867 90.6306 28.36 90.6306 28.08C90.6306 27.8933 90.5773 27.7267 90.4706 27.58C90.3773 27.4333 90.164 27.2667 89.8306 27.08C89.4973 26.8933 88.9773 26.6533 88.2706 26.36C87.5906 26.0667 87.0306 25.78 86.5906 25.5C86.1506 25.2067 85.824 24.86 85.6106 24.46C85.3973 24.0467 85.2906 23.5333 85.2906 22.92C85.2906 21.9067 85.684 21.1467 86.4706 20.64C87.2573 20.1333 88.304 19.88 89.6106 19.88C90.2906 19.88 90.9373 19.9467 91.5506 20.08C92.164 20.2133 92.7973 20.4333 93.4506 20.74L92.5506 22.88C92.1906 22.72 91.844 22.58 91.5106 22.46C91.1773 22.34 90.8506 22.2467 90.5306 22.18C90.224 22.1133 89.904 22.08 89.5706 22.08C89.1306 22.08 88.7973 22.14 88.5706 22.26C88.3573 22.38 88.2506 22.56 88.2506 22.8C88.2506 22.9733 88.304 23.1333 88.4106 23.28C88.5306 23.4133 88.7506 23.56 89.0706 23.72C89.404 23.88 89.8906 24.0933 90.5306 24.36C91.1573 24.6133 91.6973 24.88 92.1506 25.16C92.604 25.4267 92.9506 25.7667 93.1906 26.18C93.444 26.58 93.5706 27.1067 93.5706 27.76ZM98.872 20.08V31H95.892V20.08H98.872ZM97.392 15.8C97.832 15.8 98.212 15.9067 98.532 16.12C98.852 16.32 99.012 16.7 99.012 17.26C99.012 17.8067 98.852 18.1867 98.532 18.4C98.212 18.6133 97.832 18.72 97.392 18.72C96.9387 18.72 96.552 18.6133 96.232 18.4C95.9254 18.1867 95.772 17.8067 95.772 17.26C95.772 16.7 95.9254 16.32 96.232 16.12C96.552 15.9067 96.9387 15.8 97.392 15.8ZM105.526 19.88C106.192 19.88 106.792 20.0133 107.326 20.28C107.859 20.5467 108.312 20.9467 108.686 21.48H108.766L109.006 20.08H111.526V31.02C111.526 32.06 111.319 32.9333 110.906 33.64C110.506 34.3467 109.899 34.88 109.086 35.24C108.272 35.6133 107.266 35.8 106.066 35.8C105.292 35.8 104.572 35.7533 103.906 35.66C103.252 35.5667 102.612 35.4 101.986 35.16V32.78C102.439 32.9667 102.892 33.12 103.346 33.24C103.812 33.3733 104.286 33.4667 104.766 33.52C105.259 33.5867 105.752 33.62 106.246 33.62C107.019 33.62 107.592 33.4133 107.966 33C108.352 32.5867 108.546 31.9667 108.546 31.14V30.92C108.546 30.6933 108.552 30.46 108.566 30.22C108.592 29.98 108.612 29.7667 108.626 29.58H108.546C108.172 30.1533 107.726 30.5667 107.206 30.82C106.686 31.0733 106.099 31.2 105.446 31.2C104.152 31.2 103.139 30.7067 102.406 29.72C101.686 28.72 101.326 27.3333 101.326 25.56C101.326 24.36 101.492 23.34 101.826 22.5C102.159 21.6467 102.639 21 103.266 20.56C103.906 20.1067 104.659 19.88 105.526 19.88ZM106.466 22.3C105.999 22.3 105.606 22.4267 105.286 22.68C104.979 22.92 104.746 23.2867 104.586 23.78C104.439 24.26 104.366 24.8667 104.366 25.6C104.366 26.6933 104.539 27.5133 104.886 28.06C105.232 28.5933 105.772 28.86 106.506 28.86C106.892 28.86 107.226 28.8133 107.506 28.72C107.786 28.6133 108.012 28.4467 108.186 28.22C108.372 27.98 108.512 27.6733 108.606 27.3C108.699 26.9267 108.746 26.4733 108.746 25.94V25.58C108.746 24.7933 108.666 24.16 108.506 23.68C108.346 23.2 108.099 22.8533 107.766 22.64C107.432 22.4133 106.999 22.3 106.466 22.3ZM120.842 19.88C122.015 19.88 122.955 20.2 123.662 20.84C124.369 21.4667 124.722 22.48 124.722 23.88V31H121.742V24.62C121.742 23.8333 121.602 23.2467 121.322 22.86C121.042 22.46 120.595 22.26 119.982 22.26C119.075 22.26 118.455 22.5733 118.122 23.2C117.789 23.8133 117.622 24.7 117.622 25.86V31H114.642V20.08H116.922L117.322 21.48H117.482C117.722 21.1067 118.015 20.8067 118.362 20.58C118.709 20.34 119.095 20.1667 119.522 20.06C119.949 19.94 120.389 19.88 120.842 19.88Z" fill="#121212"/>
</svg>
