<svg width="165" height="52" viewBox="0 0 165 52" fill="none" xmlns="http://www.w3.org/2000/svg">
<rect width="165" height="52" rx="26" fill="#FF7080"/>
<path d="M54.78 33H51.8V18.72H59.98V21.2H54.78V24.88H59.62V27.36H54.78V33ZM65.5166 22.08V33H62.5366V22.08H65.5166ZM64.0366 17.8C64.4766 17.8 64.8566 17.9067 65.1766 18.12C65.4966 18.32 65.6566 18.7 65.6566 19.26C65.6566 19.8067 65.4966 20.1867 65.1766 20.4C64.8566 20.6133 64.4766 20.72 64.0366 20.72C63.5832 20.72 63.1966 20.6133 62.8766 20.4C62.5699 20.1867 62.4166 19.8067 62.4166 19.26C62.4166 18.7 62.5699 18.32 62.8766 18.12C63.1966 17.9067 63.5832 17.8 64.0366 17.8ZM72.1703 21.88C72.837 21.88 73.437 22.0133 73.9703 22.28C74.5036 22.5467 74.957 22.9467 75.3303 23.48H75.4103L75.6503 22.08H78.1703V33.02C78.1703 34.06 77.9636 34.9333 77.5503 35.64C77.1503 36.3467 76.5436 36.88 75.7303 37.24C74.917 37.6133 73.9103 37.8 72.7103 37.8C71.937 37.8 71.217 37.7533 70.5503 37.66C69.897 37.5667 69.257 37.4 68.6303 37.16V34.78C69.0836 34.9667 69.537 35.12 69.9903 35.24C70.457 35.3733 70.9303 35.4667 71.4103 35.52C71.9036 35.5867 72.397 35.62 72.8903 35.62C73.6636 35.62 74.237 35.4133 74.6103 35C74.997 34.5867 75.1903 33.9667 75.1903 33.14V32.92C75.1903 32.6933 75.197 32.46 75.2103 32.22C75.237 31.98 75.257 31.7667 75.2703 31.58H75.1903C74.817 32.1533 74.3703 32.5667 73.8503 32.82C73.3303 33.0733 72.7436 33.2 72.0903 33.2C70.797 33.2 69.7836 32.7067 69.0503 31.72C68.3303 30.72 67.9703 29.3333 67.9703 27.56C67.9703 26.36 68.137 25.34 68.4703 24.5C68.8036 23.6467 69.2836 23 69.9103 22.56C70.5503 22.1067 71.3036 21.88 72.1703 21.88ZM73.1103 24.3C72.6436 24.3 72.2503 24.4267 71.9303 24.68C71.6236 24.92 71.3903 25.2867 71.2303 25.78C71.0836 26.26 71.0103 26.8667 71.0103 27.6C71.0103 28.6933 71.1836 29.5133 71.5303 30.06C71.877 30.5933 72.417 30.86 73.1503 30.86C73.537 30.86 73.8703 30.8133 74.1503 30.72C74.4303 30.6133 74.657 30.4467 74.8303 30.22C75.017 29.98 75.157 29.6733 75.2503 29.3C75.3436 28.9267 75.3903 28.4733 75.3903 27.94V27.58C75.3903 26.7933 75.3103 26.16 75.1503 25.68C74.9903 25.2 74.7436 24.8533 74.4103 24.64C74.077 24.4133 73.6436 24.3 73.1103 24.3ZM94.1066 21.88C95.3466 21.88 96.2799 22.2 96.9066 22.84C97.5466 23.4667 97.8666 24.48 97.8666 25.88V33H94.8866V26.62C94.8866 25.8333 94.7532 25.2467 94.4866 24.86C94.2199 24.46 93.8066 24.26 93.2466 24.26C92.4599 24.26 91.8999 24.54 91.5666 25.1C91.2332 25.66 91.0666 26.4667 91.0666 27.52V33H88.0866V26.62C88.0866 26.1 88.0266 25.6667 87.9066 25.32C87.7866 24.9733 87.6066 24.7133 87.3666 24.54C87.1266 24.3533 86.8199 24.26 86.4466 24.26C85.8999 24.26 85.4666 24.4 85.1466 24.68C84.8266 24.96 84.5999 25.3667 84.4666 25.9C84.3332 26.4333 84.2666 27.0867 84.2666 27.86V33H81.2866V22.08H83.5666L83.9666 23.48H84.1266C84.3532 23.1067 84.6332 22.8067 84.9666 22.58C85.2999 22.34 85.6666 22.1667 86.0666 22.06C86.4799 21.94 86.8932 21.88 87.3066 21.88C88.1066 21.88 88.7866 22.0133 89.3466 22.28C89.9066 22.5333 90.3332 22.9333 90.6266 23.48H90.8866C91.2199 22.92 91.6799 22.5133 92.2666 22.26C92.8666 22.0067 93.4799 21.88 94.1066 21.88ZM105.415 21.86C106.882 21.86 108.002 22.18 108.775 22.82C109.562 23.4467 109.955 24.4133 109.955 25.72V33H107.875L107.295 31.52H107.215C106.908 31.9067 106.588 32.2267 106.255 32.48C105.935 32.7333 105.562 32.9133 105.135 33.02C104.722 33.14 104.208 33.2 103.595 33.2C102.955 33.2 102.375 33.08 101.855 32.84C101.348 32.5867 100.948 32.2067 100.655 31.7C100.362 31.18 100.215 30.5267 100.215 29.74C100.215 28.58 100.622 27.7267 101.435 27.18C102.248 26.62 103.468 26.3133 105.095 26.26L106.995 26.2V25.72C106.995 25.1467 106.842 24.7267 106.535 24.46C106.242 24.1933 105.828 24.06 105.295 24.06C104.762 24.06 104.242 24.14 103.735 24.3C103.228 24.4467 102.722 24.6333 102.215 24.86L101.235 22.84C101.822 22.5333 102.468 22.2933 103.175 22.12C103.895 21.9467 104.642 21.86 105.415 21.86ZM105.835 27.98C104.875 28.0067 104.208 28.18 103.835 28.5C103.462 28.82 103.275 29.24 103.275 29.76C103.275 30.2133 103.408 30.54 103.675 30.74C103.942 30.9267 104.288 31.02 104.715 31.02C105.355 31.02 105.895 30.8333 106.335 30.46C106.775 30.0733 106.995 29.5333 106.995 28.84V27.94L105.835 27.98Z" fill="#121212"/>
</svg>
