<svg width="165" height="52" viewBox="0 0 165 52" fill="none" xmlns="http://www.w3.org/2000/svg">
<rect width="165" height="52" rx="26" fill="#FF7080"/>
<path d="M35.36 16.72C37.2 16.72 38.54 17.12 39.38 17.92C40.2333 18.7067 40.66 19.7933 40.66 21.18C40.66 21.8067 40.5667 22.4067 40.38 22.98C40.1933 23.54 39.88 24.0467 39.44 24.5C39.0133 24.94 38.4467 25.2867 37.74 25.54C37.0333 25.7933 36.16 25.92 35.12 25.92H33.82V31H30.8V16.72H35.36ZM35.2 19.2H33.82V23.44H34.82C35.3933 23.44 35.8867 23.3667 36.3 23.22C36.7133 23.0733 37.0333 22.84 37.26 22.52C37.4867 22.2 37.6 21.7867 37.6 21.28C37.6 20.5733 37.4067 20.0533 37.02 19.72C36.6333 19.3733 36.0267 19.2 35.2 19.2ZM46.0986 18.9C46.0986 19.4333 46.0786 19.9467 46.0386 20.44C46.0119 20.9333 45.9853 21.28 45.9586 21.48H46.1186C46.3586 21.1067 46.6386 20.8067 46.9586 20.58C47.2786 20.34 47.6319 20.1667 48.0186 20.06C48.4186 19.94 48.8386 19.88 49.2786 19.88C50.0653 19.88 50.7519 20.02 51.3386 20.3C51.9253 20.58 52.3786 21.0133 52.6986 21.6C53.0319 22.1867 53.1986 22.9467 53.1986 23.88V31H50.2186V24.62C50.2186 23.8333 50.0719 23.2467 49.7786 22.86C49.4986 22.46 49.0586 22.26 48.4586 22.26C47.8586 22.26 47.3853 22.4 47.0386 22.68C46.7053 22.96 46.4653 23.3667 46.3186 23.9C46.1719 24.4333 46.0986 25.0867 46.0986 25.86V31H43.1186V15.8H46.0986V18.9ZM66.1831 25.52C66.1831 26.4267 66.0565 27.2333 65.8031 27.94C65.5631 28.6467 65.2098 29.2467 64.7431 29.74C64.2898 30.22 63.7365 30.5867 63.0831 30.84C62.4298 31.08 61.6898 31.2 60.8631 31.2C60.1031 31.2 59.3965 31.08 58.7431 30.84C58.1031 30.5867 57.5498 30.22 57.0831 29.74C56.6165 29.2467 56.2498 28.6467 55.9831 27.94C55.7298 27.2333 55.6031 26.4267 55.6031 25.52C55.6031 24.3067 55.8165 23.2867 56.2431 22.46C56.6698 21.62 57.2831 20.98 58.0831 20.54C58.8831 20.1 59.8298 19.88 60.9231 19.88C61.9498 19.88 62.8565 20.1 63.6431 20.54C64.4298 20.98 65.0498 21.62 65.5031 22.46C65.9565 23.2867 66.1831 24.3067 66.1831 25.52ZM58.6431 25.52C58.6431 26.24 58.7165 26.8467 58.8631 27.34C59.0231 27.82 59.2698 28.1867 59.6031 28.44C59.9365 28.68 60.3698 28.8 60.9031 28.8C61.4365 28.8 61.8631 28.68 62.1831 28.44C62.5165 28.1867 62.7565 27.82 62.9031 27.34C63.0631 26.8467 63.1431 26.24 63.1431 25.52C63.1431 24.8 63.0631 24.2 62.9031 23.72C62.7565 23.24 62.5165 22.88 62.1831 22.64C61.8498 22.4 61.4165 22.28 60.8831 22.28C60.0965 22.28 59.5231 22.5533 59.1631 23.1C58.8165 23.6333 58.6431 24.44 58.6431 25.52ZM73.2459 28.82C73.5793 28.82 73.8993 28.7867 74.2059 28.72C74.5126 28.6533 74.8193 28.5733 75.1259 28.48V30.7C74.8059 30.8333 74.4059 30.9467 73.9259 31.04C73.4593 31.1467 72.9459 31.2 72.3859 31.2C71.7326 31.2 71.1459 31.0933 70.6259 30.88C70.1193 30.6667 69.7126 30.3 69.4059 29.78C69.1126 29.2467 68.9659 28.5133 68.9659 27.58V22.32H67.5459V21.06L69.1859 20.06L70.0459 17.76H71.9459V20.08H75.0059V22.32H71.9459V27.58C71.9459 27.9933 72.0659 28.3067 72.3059 28.52C72.5459 28.72 72.8593 28.82 73.2459 28.82ZM87.2378 25.52C87.2378 26.4267 87.1111 27.2333 86.8578 27.94C86.6178 28.6467 86.2645 29.2467 85.7978 29.74C85.3445 30.22 84.7911 30.5867 84.1378 30.84C83.4845 31.08 82.7445 31.2 81.9178 31.2C81.1578 31.2 80.4511 31.08 79.7978 30.84C79.1578 30.5867 78.6045 30.22 78.1378 29.74C77.6711 29.2467 77.3045 28.6467 77.0378 27.94C76.7845 27.2333 76.6578 26.4267 76.6578 25.52C76.6578 24.3067 76.8711 23.2867 77.2978 22.46C77.7245 21.62 78.3378 20.98 79.1378 20.54C79.9378 20.1 80.8845 19.88 81.9778 19.88C83.0045 19.88 83.9111 20.1 84.6978 20.54C85.4845 20.98 86.1045 21.62 86.5578 22.46C87.0111 23.2867 87.2378 24.3067 87.2378 25.52ZM79.6978 25.52C79.6978 26.24 79.7711 26.8467 79.9178 27.34C80.0778 27.82 80.3245 28.1867 80.6578 28.44C80.9911 28.68 81.4245 28.8 81.9578 28.8C82.4911 28.8 82.9178 28.68 83.2378 28.44C83.5711 28.1867 83.8111 27.82 83.9578 27.34C84.1178 26.8467 84.1978 26.24 84.1978 25.52C84.1978 24.8 84.1178 24.2 83.9578 23.72C83.8111 23.24 83.5711 22.88 83.2378 22.64C82.9045 22.4 82.4711 22.28 81.9378 22.28C81.1511 22.28 80.5778 22.5533 80.2178 23.1C79.8711 23.6333 79.6978 24.44 79.6978 25.52ZM97.3206 27.76C97.3206 28.4933 97.1473 29.12 96.8006 29.64C96.454 30.1467 95.934 30.5333 95.2406 30.8C94.5473 31.0667 93.6873 31.2 92.6606 31.2C91.9006 31.2 91.2473 31.1467 90.7006 31.04C90.154 30.9467 89.6073 30.7867 89.0606 30.56V28.1C89.6473 28.3667 90.2806 28.5867 90.9606 28.76C91.6406 28.9333 92.2406 29.02 92.7606 29.02C93.3473 29.02 93.7606 28.9333 94.0006 28.76C94.254 28.5867 94.3806 28.36 94.3806 28.08C94.3806 27.8933 94.3273 27.7267 94.2206 27.58C94.1273 27.4333 93.914 27.2667 93.5806 27.08C93.2473 26.8933 92.7273 26.6533 92.0206 26.36C91.3406 26.0667 90.7806 25.78 90.3406 25.5C89.9006 25.2067 89.574 24.86 89.3606 24.46C89.1473 24.0467 89.0406 23.5333 89.0406 22.92C89.0406 21.9067 89.434 21.1467 90.2206 20.64C91.0073 20.1333 92.054 19.88 93.3606 19.88C94.0406 19.88 94.6873 19.9467 95.3006 20.08C95.914 20.2133 96.5473 20.4333 97.2006 20.74L96.3006 22.88C95.9406 22.72 95.594 22.58 95.2606 22.46C94.9273 22.34 94.6006 22.2467 94.2806 22.18C93.974 22.1133 93.654 22.08 93.3206 22.08C92.8806 22.08 92.5473 22.14 92.3206 22.26C92.1073 22.38 92.0006 22.56 92.0006 22.8C92.0006 22.9733 92.054 23.1333 92.1606 23.28C92.2806 23.4133 92.5006 23.56 92.8206 23.72C93.154 23.88 93.6406 24.0933 94.2806 24.36C94.9073 24.6133 95.4473 24.88 95.9006 25.16C96.354 25.4267 96.7006 25.7667 96.9406 26.18C97.194 26.58 97.3206 27.1067 97.3206 27.76ZM102.622 18.9C102.622 19.4333 102.602 19.9467 102.562 20.44C102.535 20.9333 102.509 21.28 102.482 21.48H102.642C102.882 21.1067 103.162 20.8067 103.482 20.58C103.802 20.34 104.155 20.1667 104.542 20.06C104.942 19.94 105.362 19.88 105.802 19.88C106.589 19.88 107.275 20.02 107.862 20.3C108.449 20.58 108.902 21.0133 109.222 21.6C109.555 22.1867 109.722 22.9467 109.722 23.88V31H106.742V24.62C106.742 23.8333 106.595 23.2467 106.302 22.86C106.022 22.46 105.582 22.26 104.982 22.26C104.382 22.26 103.909 22.4 103.562 22.68C103.229 22.96 102.989 23.3667 102.842 23.9C102.695 24.4333 102.622 25.0867 102.622 25.86V31H99.642V15.8H102.622V18.9ZM122.707 25.52C122.707 26.4267 122.58 27.2333 122.327 27.94C122.087 28.6467 121.733 29.2467 121.267 29.74C120.813 30.22 120.26 30.5867 119.607 30.84C118.953 31.08 118.213 31.2 117.387 31.2C116.627 31.2 115.92 31.08 115.267 30.84C114.627 30.5867 114.073 30.22 113.607 29.74C113.14 29.2467 112.773 28.6467 112.507 27.94C112.253 27.2333 112.127 26.4267 112.127 25.52C112.127 24.3067 112.34 23.2867 112.767 22.46C113.193 21.62 113.807 20.98 114.607 20.54C115.407 20.1 116.353 19.88 117.447 19.88C118.473 19.88 119.38 20.1 120.167 20.54C120.953 20.98 121.573 21.62 122.027 22.46C122.48 23.2867 122.707 24.3067 122.707 25.52ZM115.167 25.52C115.167 26.24 115.24 26.8467 115.387 27.34C115.547 27.82 115.793 28.1867 116.127 28.44C116.46 28.68 116.893 28.8 117.427 28.8C117.96 28.8 118.387 28.68 118.707 28.44C119.04 28.1867 119.28 27.82 119.427 27.34C119.587 26.8467 119.667 26.24 119.667 25.52C119.667 24.8 119.587 24.2 119.427 23.72C119.28 23.24 119.04 22.88 118.707 22.64C118.373 22.4 117.94 22.28 117.407 22.28C116.62 22.28 116.047 22.5533 115.687 23.1C115.34 23.6333 115.167 24.44 115.167 25.52ZM131.249 19.88C132.476 19.88 133.469 20.36 134.229 21.32C134.989 22.2667 135.369 23.6667 135.369 25.52C135.369 26.76 135.189 27.8067 134.829 28.66C134.469 29.5 133.976 30.1333 133.349 30.56C132.723 30.9867 131.996 31.2 131.169 31.2C130.649 31.2 130.196 31.1333 129.809 31C129.436 30.8667 129.116 30.6933 128.849 30.48C128.583 30.2667 128.349 30.04 128.149 29.8H127.989C128.043 30.0533 128.083 30.32 128.109 30.6C128.136 30.8667 128.149 31.1333 128.149 31.4V35.8H125.169V20.08H127.589L128.009 21.5H128.149C128.349 21.2067 128.589 20.94 128.869 20.7C129.149 20.4467 129.483 20.2467 129.869 20.1C130.269 19.9533 130.729 19.88 131.249 19.88ZM130.289 22.26C129.769 22.26 129.356 22.3667 129.049 22.58C128.743 22.7933 128.516 23.12 128.369 23.56C128.236 23.9867 128.163 24.5267 128.149 25.18V25.5C128.149 26.2067 128.216 26.8067 128.349 27.3C128.483 27.78 128.709 28.1467 129.029 28.4C129.349 28.6533 129.783 28.78 130.329 28.78C130.783 28.78 131.156 28.6533 131.449 28.4C131.743 28.1467 131.963 27.7733 132.109 27.28C132.256 26.7867 132.329 26.1867 132.329 25.48C132.329 24.4133 132.163 23.6133 131.829 23.08C131.509 22.5333 130.996 22.26 130.289 22.26Z" fill="#121212"/>
</svg>
