<svg width="165" height="52" viewBox="0 0 165 52" fill="none" xmlns="http://www.w3.org/2000/svg">
<rect width="165" height="52" rx="26" fill="#FF7080"/>
<path d="M72.86 20.04C72.2867 20.04 71.7733 20.1533 71.32 20.38C70.88 20.6067 70.5067 20.9333 70.2 21.36C69.8933 21.7733 69.66 22.28 69.5 22.88C69.3533 23.48 69.28 24.1533 69.28 24.9C69.28 25.9133 69.4 26.78 69.64 27.5C69.8933 28.2067 70.2867 28.7467 70.82 29.12C71.3533 29.4933 72.0333 29.68 72.86 29.68C73.4467 29.68 74.0267 29.6133 74.6 29.48C75.1867 29.3467 75.82 29.16 76.5 28.92V31.46C75.8733 31.7133 75.2533 31.9 74.64 32.02C74.0267 32.14 73.34 32.2 72.58 32.2C71.1133 32.2 69.9 31.9 68.94 31.3C67.9933 30.6867 67.2933 29.8333 66.84 28.74C66.3867 27.6333 66.16 26.3467 66.16 24.88C66.16 23.8 66.3067 22.8133 66.6 21.92C66.8933 21.0133 67.32 20.2333 67.88 19.58C68.4533 18.9267 69.1533 18.42 69.98 18.06C70.82 17.7 71.78 17.52 72.86 17.52C73.5667 17.52 74.2733 17.6133 74.98 17.8C75.7 17.9733 76.3867 18.2133 77.04 18.52L76.06 20.98C75.5267 20.7267 74.9867 20.5067 74.44 20.32C73.9067 20.1333 73.38 20.04 72.86 20.04ZM87.9544 28.04C87.9544 28.88 87.7477 29.6133 87.3344 30.24C86.921 30.8667 86.321 31.3533 85.5344 31.7C84.761 32.0333 83.8144 32.2 82.6944 32.2C82.201 32.2 81.7144 32.1667 81.2344 32.1C80.7677 32.0333 80.3144 31.94 79.8744 31.82C79.4477 31.6867 79.041 31.5267 78.6544 31.34V28.52C79.3344 28.8133 80.0344 29.0867 80.7544 29.34C81.4877 29.58 82.2144 29.7 82.9344 29.7C83.4277 29.7 83.821 29.6333 84.1144 29.5C84.421 29.3667 84.641 29.1867 84.7744 28.96C84.921 28.7333 84.9944 28.4733 84.9944 28.18C84.9944 27.82 84.8677 27.5133 84.6144 27.26C84.3744 27.0067 84.0477 26.7733 83.6344 26.56C83.221 26.3333 82.7477 26.0933 82.2144 25.84C81.881 25.68 81.521 25.4933 81.1344 25.28C80.7477 25.0533 80.3744 24.78 80.0144 24.46C79.6677 24.1267 79.381 23.7267 79.1544 23.26C78.9277 22.7933 78.8144 22.2333 78.8144 21.58C78.8144 20.7267 79.0077 20 79.3944 19.4C79.7944 18.7867 80.3544 18.32 81.0744 18C81.8077 17.68 82.6677 17.52 83.6544 17.52C84.401 17.52 85.1077 17.6067 85.7744 17.78C86.4544 17.9533 87.161 18.2 87.8944 18.52L86.9144 20.88C86.261 20.6133 85.6744 20.4067 85.1544 20.26C84.6344 20.1133 84.101 20.04 83.5544 20.04C83.181 20.04 82.861 20.1 82.5944 20.22C82.3277 20.34 82.121 20.5067 81.9744 20.72C81.841 20.9333 81.7744 21.1867 81.7744 21.48C81.7744 21.8133 81.8744 22.1 82.0744 22.34C82.2744 22.5667 82.5744 22.7867 82.9744 23C83.3744 23.2133 83.8744 23.4667 84.4744 23.76C85.2077 24.1067 85.8277 24.4667 86.3344 24.84C86.8544 25.2133 87.2544 25.6533 87.5344 26.16C87.8144 26.6667 87.9544 27.2933 87.9544 28.04ZM98.97 28.04C98.97 28.88 98.7633 29.6133 98.35 30.24C97.9367 30.8667 97.3367 31.3533 96.55 31.7C95.7767 32.0333 94.83 32.2 93.71 32.2C93.2167 32.2 92.73 32.1667 92.25 32.1C91.7833 32.0333 91.33 31.94 90.89 31.82C90.4633 31.6867 90.0567 31.5267 89.67 31.34V28.52C90.35 28.8133 91.05 29.0867 91.77 29.34C92.5033 29.58 93.23 29.7 93.95 29.7C94.4433 29.7 94.8367 29.6333 95.13 29.5C95.4367 29.3667 95.6567 29.1867 95.79 28.96C95.9367 28.7333 96.01 28.4733 96.01 28.18C96.01 27.82 95.8833 27.5133 95.63 27.26C95.39 27.0067 95.0633 26.7733 94.65 26.56C94.2367 26.3333 93.7633 26.0933 93.23 25.84C92.8967 25.68 92.5367 25.4933 92.15 25.28C91.7633 25.0533 91.39 24.78 91.03 24.46C90.6833 24.1267 90.3967 23.7267 90.17 23.26C89.9433 22.7933 89.83 22.2333 89.83 21.58C89.83 20.7267 90.0233 20 90.41 19.4C90.81 18.7867 91.37 18.32 92.09 18C92.8233 17.68 93.6833 17.52 94.67 17.52C95.4167 17.52 96.1233 17.6067 96.79 17.78C97.47 17.9533 98.1767 18.2 98.91 18.52L97.93 20.88C97.2767 20.6133 96.69 20.4067 96.17 20.26C95.65 20.1133 95.1167 20.04 94.57 20.04C94.1967 20.04 93.8767 20.1 93.61 20.22C93.3433 20.34 93.1367 20.5067 92.99 20.72C92.8567 20.9333 92.79 21.1867 92.79 21.48C92.79 21.8133 92.89 22.1 93.09 22.34C93.29 22.5667 93.59 22.7867 93.99 23C94.39 23.2133 94.89 23.4667 95.49 23.76C96.2233 24.1067 96.8433 24.4667 97.35 24.84C97.87 25.2133 98.27 25.6533 98.55 26.16C98.83 26.6667 98.97 27.2933 98.97 28.04Z" fill="#121212"/>
</svg>
