<svg width="165" height="52" viewBox="0 0 165 52" fill="none" xmlns="http://www.w3.org/2000/svg">
<rect width="165" height="52" rx="26" fill="#FF7080"/>
<path d="M72.22 23.98H77.88V31.38C77.1333 31.6333 76.3533 31.8333 75.54 31.98C74.74 32.1267 73.8267 32.2 72.8 32.2C71.3867 32.2 70.18 31.92 69.18 31.36C68.1933 30.8 67.44 29.9733 66.92 28.88C66.4133 27.7867 66.16 26.44 66.16 24.84C66.16 23.3467 66.4467 22.0533 67.02 20.96C67.6067 19.8667 68.4533 19.02 69.56 18.42C70.6667 17.82 72.02 17.52 73.62 17.52C74.38 17.52 75.1267 17.6 75.86 17.76C76.5933 17.92 77.26 18.1333 77.86 18.4L76.86 20.82C76.42 20.5933 75.92 20.4067 75.36 20.26C74.8 20.1133 74.2133 20.04 73.6 20.04C72.72 20.04 71.9533 20.24 71.3 20.64C70.66 21.04 70.16 21.6067 69.8 22.34C69.4533 23.06 69.28 23.9133 69.28 24.9C69.28 25.8333 69.4067 26.66 69.66 27.38C69.9133 28.1 70.3133 28.6667 70.86 29.08C71.4067 29.48 72.12 29.68 73 29.68C73.2933 29.68 73.5467 29.6733 73.76 29.66C73.9867 29.6333 74.1933 29.6067 74.38 29.58C74.5667 29.54 74.7467 29.5067 74.92 29.48V26.5H72.22V23.98ZM84.0127 21.08V32H81.0327V21.08H84.0127ZM82.5327 16.8C82.9727 16.8 83.3527 16.9067 83.6727 17.12C83.9927 17.32 84.1527 17.7 84.1527 18.26C84.1527 18.8067 83.9927 19.1867 83.6727 19.4C83.3527 19.6133 82.9727 19.72 82.5327 19.72C82.0793 19.72 81.6927 19.6133 81.3727 19.4C81.066 19.1867 80.9127 18.8067 80.9127 18.26C80.9127 17.7 81.066 17.32 81.3727 17.12C81.6927 16.9067 82.0793 16.8 82.5327 16.8ZM91.7264 29.82C92.0597 29.82 92.3797 29.7867 92.6864 29.72C92.9931 29.6533 93.2997 29.5733 93.6064 29.48V31.7C93.2864 31.8333 92.8864 31.9467 92.4064 32.04C91.9397 32.1467 91.4264 32.2 90.8664 32.2C90.2131 32.2 89.6264 32.0933 89.1064 31.88C88.5997 31.6667 88.1931 31.3 87.8864 30.78C87.5931 30.2467 87.4464 29.5133 87.4464 28.58V23.32H86.0264V22.06L87.6664 21.06L88.5264 18.76H90.4264V21.08H93.4864V23.32H90.4264V28.58C90.4264 28.9933 90.5464 29.3067 90.7864 29.52C91.0264 29.72 91.3397 29.82 91.7264 29.82Z" fill="#121212"/>
</svg>
