<svg width="165" height="52" viewBox="0 0 165 52" fill="none" xmlns="http://www.w3.org/2000/svg">
<rect width="165" height="52" rx="26" fill="#FF7080"/>
<path d="M38.14 33H31.64V31.28L33.38 30.48V21.24L31.64 20.44V18.72H38.14V20.44L36.4 21.24V30.48L38.14 31.28V33ZM43.3134 33H40.3334V17.8H43.3134V33ZM49.4072 33H46.4272V17.8H49.4072V33ZM62.5409 22.08V33H60.2609L59.8609 31.6H59.7009C59.4743 31.9733 59.1809 32.28 58.8209 32.52C58.4743 32.7467 58.0876 32.9133 57.6609 33.02C57.2343 33.14 56.7943 33.2 56.3409 33.2C55.5676 33.2 54.8876 33.06 54.3009 32.78C53.7143 32.5 53.2609 32.0667 52.9409 31.48C52.6209 30.8933 52.4609 30.1333 52.4609 29.2V22.08H55.4409V28.46C55.4409 29.2333 55.5809 29.82 55.8609 30.22C56.1409 30.62 56.5876 30.82 57.2009 30.82C57.8143 30.82 58.2876 30.68 58.6209 30.4C58.9676 30.12 59.2076 29.7133 59.3409 29.18C59.4876 28.6467 59.5609 27.9933 59.5609 27.22V22.08H62.5409ZM73.2855 29.76C73.2855 30.4933 73.1121 31.12 72.7655 31.64C72.4188 32.1467 71.8988 32.5333 71.2055 32.8C70.5121 33.0667 69.6521 33.2 68.6255 33.2C67.8655 33.2 67.2121 33.1467 66.6655 33.04C66.1188 32.9467 65.5721 32.7867 65.0255 32.56V30.1C65.6121 30.3667 66.2455 30.5867 66.9255 30.76C67.6055 30.9333 68.2055 31.02 68.7255 31.02C69.3121 31.02 69.7255 30.9333 69.9655 30.76C70.2188 30.5867 70.3455 30.36 70.3455 30.08C70.3455 29.8933 70.2921 29.7267 70.1855 29.58C70.0921 29.4333 69.8788 29.2667 69.5455 29.08C69.2121 28.8933 68.6921 28.6533 67.9855 28.36C67.3055 28.0667 66.7455 27.78 66.3055 27.5C65.8655 27.2067 65.5388 26.86 65.3255 26.46C65.1121 26.0467 65.0055 25.5333 65.0055 24.92C65.0055 23.9067 65.3988 23.1467 66.1855 22.64C66.9721 22.1333 68.0188 21.88 69.3255 21.88C70.0055 21.88 70.6521 21.9467 71.2655 22.08C71.8788 22.2133 72.5121 22.4333 73.1655 22.74L72.2655 24.88C71.9055 24.72 71.5588 24.58 71.2255 24.46C70.8921 24.34 70.5655 24.2467 70.2455 24.18C69.9388 24.1133 69.6188 24.08 69.2855 24.08C68.8455 24.08 68.5121 24.14 68.2855 24.26C68.0721 24.38 67.9655 24.56 67.9655 24.8C67.9655 24.9733 68.0188 25.1333 68.1255 25.28C68.2455 25.4133 68.4655 25.56 68.7855 25.72C69.1188 25.88 69.6055 26.0933 70.2455 26.36C70.8721 26.6133 71.4121 26.88 71.8655 27.16C72.3188 27.4267 72.6655 27.7667 72.9055 28.18C73.1588 28.58 73.2855 29.1067 73.2855 29.76ZM80.2069 30.82C80.5402 30.82 80.8602 30.7867 81.1669 30.72C81.4735 30.6533 81.7802 30.5733 82.0869 30.48V32.7C81.7669 32.8333 81.3669 32.9467 80.8869 33.04C80.4202 33.1467 79.9069 33.2 79.3469 33.2C78.6935 33.2 78.1069 33.0933 77.5869 32.88C77.0802 32.6667 76.6735 32.3 76.3669 31.78C76.0735 31.2467 75.9269 30.5133 75.9269 29.58V24.32H74.5069V23.06L76.1469 22.06L77.0069 19.76H78.9069V22.08H81.9669V24.32H78.9069V29.58C78.9069 29.9933 79.0269 30.3067 79.2669 30.52C79.5069 30.72 79.8202 30.82 80.2069 30.82ZM90.3788 21.88C90.5254 21.88 90.6988 21.8867 90.8988 21.9C91.0988 21.9133 91.2588 21.9333 91.3788 21.96L91.1588 24.76C91.0654 24.7333 90.9254 24.7133 90.7388 24.7C90.5654 24.6733 90.4121 24.66 90.2788 24.66C89.8921 24.66 89.5188 24.7133 89.1588 24.82C88.7988 24.9133 88.4721 25.0667 88.1788 25.28C87.8988 25.4933 87.6721 25.78 87.4988 26.14C87.3388 26.4867 87.2588 26.92 87.2588 27.44V33H84.2788V22.08H86.5388L86.9788 23.92H87.1188C87.3321 23.5467 87.5988 23.2067 87.9188 22.9C88.2388 22.5933 88.6054 22.3467 89.0188 22.16C89.4454 21.9733 89.8988 21.88 90.3788 21.88ZM97.4502 21.86C98.9168 21.86 100.037 22.18 100.81 22.82C101.597 23.4467 101.99 24.4133 101.99 25.72V33H99.9102L99.3302 31.52H99.2502C98.9435 31.9067 98.6235 32.2267 98.2902 32.48C97.9702 32.7333 97.5968 32.9133 97.1702 33.02C96.7568 33.14 96.2435 33.2 95.6302 33.2C94.9902 33.2 94.4102 33.08 93.8902 32.84C93.3835 32.5867 92.9835 32.2067 92.6902 31.7C92.3968 31.18 92.2502 30.5267 92.2502 29.74C92.2502 28.58 92.6568 27.7267 93.4702 27.18C94.2835 26.62 95.5035 26.3133 97.1302 26.26L99.0302 26.2V25.72C99.0302 25.1467 98.8768 24.7267 98.5702 24.46C98.2768 24.1933 97.8635 24.06 97.3302 24.06C96.7968 24.06 96.2768 24.14 95.7702 24.3C95.2635 24.4467 94.7568 24.6333 94.2502 24.86L93.2702 22.84C93.8568 22.5333 94.5035 22.2933 95.2102 22.12C95.9302 21.9467 96.6768 21.86 97.4502 21.86ZM97.8702 27.98C96.9102 28.0067 96.2435 28.18 95.8702 28.5C95.4968 28.82 95.3102 29.24 95.3102 29.76C95.3102 30.2133 95.4435 30.54 95.7102 30.74C95.9768 30.9267 96.3235 31.02 96.7502 31.02C97.3902 31.02 97.9302 30.8333 98.3702 30.46C98.8102 30.0733 99.0302 29.5333 99.0302 28.84V27.94L97.8702 27.98ZM109.64 30.82C109.974 30.82 110.294 30.7867 110.6 30.72C110.907 30.6533 111.214 30.5733 111.52 30.48V32.7C111.2 32.8333 110.8 32.9467 110.32 33.04C109.854 33.1467 109.34 33.2 108.78 33.2C108.127 33.2 107.54 33.0933 107.02 32.88C106.514 32.6667 106.107 32.3 105.8 31.78C105.507 31.2467 105.36 30.5133 105.36 29.58V24.32H103.94V23.06L105.58 22.06L106.44 19.76H108.34V22.08H111.4V24.32H108.34V29.58C108.34 29.9933 108.46 30.3067 108.7 30.52C108.94 30.72 109.254 30.82 109.64 30.82ZM123.632 27.52C123.632 28.4267 123.506 29.2333 123.252 29.94C123.012 30.6467 122.659 31.2467 122.192 31.74C121.739 32.22 121.186 32.5867 120.532 32.84C119.879 33.08 119.139 33.2 118.312 33.2C117.552 33.2 116.846 33.08 116.192 32.84C115.552 32.5867 114.999 32.22 114.532 31.74C114.066 31.2467 113.699 30.6467 113.432 29.94C113.179 29.2333 113.052 28.4267 113.052 27.52C113.052 26.3067 113.266 25.2867 113.692 24.46C114.119 23.62 114.732 22.98 115.532 22.54C116.332 22.1 117.279 21.88 118.372 21.88C119.399 21.88 120.306 22.1 121.092 22.54C121.879 22.98 122.499 23.62 122.952 24.46C123.406 25.2867 123.632 26.3067 123.632 27.52ZM116.092 27.52C116.092 28.24 116.166 28.8467 116.312 29.34C116.472 29.82 116.719 30.1867 117.052 30.44C117.386 30.68 117.819 30.8 118.352 30.8C118.886 30.8 119.312 30.68 119.632 30.44C119.966 30.1867 120.206 29.82 120.352 29.34C120.512 28.8467 120.592 28.24 120.592 27.52C120.592 26.8 120.512 26.2 120.352 25.72C120.206 25.24 119.966 24.88 119.632 24.64C119.299 24.4 118.866 24.28 118.332 24.28C117.546 24.28 116.972 24.5533 116.612 25.1C116.266 25.6333 116.092 26.44 116.092 27.52ZM132.195 21.88C132.342 21.88 132.515 21.8867 132.715 21.9C132.915 21.9133 133.075 21.9333 133.195 21.96L132.975 24.76C132.882 24.7333 132.742 24.7133 132.555 24.7C132.382 24.6733 132.228 24.66 132.095 24.66C131.708 24.66 131.335 24.7133 130.975 24.82C130.615 24.9133 130.288 25.0667 129.995 25.28C129.715 25.4933 129.488 25.78 129.315 26.14C129.155 26.4867 129.075 26.92 129.075 27.44V33H126.095V22.08H128.355L128.795 23.92H128.935C129.148 23.5467 129.415 23.2067 129.735 22.9C130.055 22.5933 130.422 22.3467 130.835 22.16C131.262 21.9733 131.715 21.88 132.195 21.88Z" fill="#121212"/>
</svg>
