<svg width="165" height="52" viewBox="0 0 165 52" fill="none" xmlns="http://www.w3.org/2000/svg">
<rect width="165" height="52" rx="26" fill="#FF7080"/>
<path d="M67.5 33H64.48V26.84H58.82V33H55.8V18.72H58.82V24.32H64.48V18.72H67.5V33ZM76.593 33H73.573V21.24H69.693V18.72H80.473V21.24H76.593V33ZM88.715 33L85.275 21.8H85.195C85.2083 22.0667 85.2283 22.4667 85.255 23C85.2817 23.5333 85.3083 24.1067 85.335 24.72C85.3617 25.32 85.375 25.8667 85.375 26.36V33H82.675V18.72H86.795L90.175 29.64H90.235L93.815 18.72H97.935V33H95.115V26.24C95.115 25.7867 95.1217 25.2667 95.135 24.68C95.1617 24.0933 95.1817 23.54 95.195 23.02C95.2217 22.4867 95.2417 22.0867 95.255 21.82H95.175L91.495 33H88.715ZM101.542 33V18.72H104.562V30.5H110.362V33H101.542Z" fill="#121212"/>
</svg>
